<?xml version="1.0" encoding="UTF-8"?>
<svg xmlns="http://www.w3.org/2000/svg" xmlns:xlink="http://www.w3.org/1999/xlink" width="350.161pt" height="36.952pt" viewBox="0 0 350.161 36.952">
<defs>
<g>
<g id="glyph-0-0">
<path d="M 2.328125 0 L 2.328125 -0.28125 C 1.75 -0.28125 1.640625 -0.28125 1.640625 -0.6875 L 1.640625 -6.203125 L 0.328125 -6.109375 L 0.328125 -5.828125 C 0.921875 -5.828125 1.015625 -5.765625 1.015625 -5.328125 L 1.015625 -0.6875 C 1.015625 -0.28125 0.90625 -0.28125 0.328125 -0.28125 L 0.328125 0 C 0.734375 -0.015625 0.90625 -0.03125 1.328125 -0.03125 C 1.75 -0.03125 1.890625 -0.015625 2.328125 0 Z M 2.328125 0 "/>
</g>
<g id="glyph-0-1">
<path d="M 4.328125 -1.90625 C 4.328125 -3.078125 3.390625 -4 2.296875 -4 C 1.15625 -4 0.265625 -3.046875 0.265625 -1.90625 C 0.265625 -0.78125 1.1875 0.09375 2.28125 0.09375 C 3.421875 0.09375 4.328125 -0.796875 4.328125 -1.90625 Z M 3.5625 -1.984375 C 3.5625 -1.65625 3.5625 -1.140625 3.328125 -0.734375 C 3.078125 -0.328125 2.671875 -0.15625 2.296875 -0.15625 C 1.84375 -0.15625 1.46875 -0.375 1.265625 -0.71875 C 1.03125 -1.09375 1.03125 -1.578125 1.03125 -1.984375 C 1.03125 -2.3125 1.03125 -2.828125 1.25 -3.1875 C 1.515625 -3.640625 1.96875 -3.78125 2.28125 -3.78125 C 2.796875 -3.78125 3.15625 -3.5 3.34375 -3.1875 C 3.546875 -2.8125 3.5625 -2.359375 3.5625 -1.984375 Z M 3.5625 -1.984375 "/>
</g>
<g id="glyph-0-2">
<path d="M 3.8125 -1.0625 C 3.8125 -1.171875 3.71875 -1.171875 3.6875 -1.171875 C 3.59375 -1.171875 3.59375 -1.15625 3.546875 -1 C 3.328125 -0.390625 2.828125 -0.15625 2.375 -0.15625 C 1.8125 -0.15625 1.078125 -0.609375 1.078125 -1.9375 C 1.078125 -3.328125 1.78125 -3.75 2.328125 -3.75 C 2.4375 -3.75 2.921875 -3.734375 3.25 -3.515625 C 3.0625 -3.484375 2.890625 -3.359375 2.890625 -3.09375 C 2.890625 -2.859375 3.0625 -2.6875 3.296875 -2.6875 C 3.53125 -2.6875 3.71875 -2.828125 3.71875 -3.109375 C 3.71875 -3.671875 3.09375 -4 2.3125 -4 C 1.15625 -4 0.296875 -3.046875 0.296875 -1.9375 C 0.296875 -0.78125 1.234375 0.09375 2.28125 0.09375 C 3.53125 0.09375 3.8125 -0.984375 3.8125 -1.0625 Z M 3.8125 -1.0625 "/>
</g>
<g id="glyph-0-3">
<path d="M 4.4375 -0.796875 L 4.4375 -1.296875 L 4.1875 -1.296875 L 4.1875 -0.796875 C 4.1875 -0.703125 4.1875 -0.265625 3.875 -0.265625 C 3.546875 -0.265625 3.546875 -0.6875 3.546875 -0.828125 L 3.546875 -2.390625 C 3.546875 -2.90625 3.546875 -3.203125 3.140625 -3.578125 C 2.8125 -3.875 2.390625 -4 1.9375 -4 C 1.1875 -4 0.5625 -3.625 0.5625 -3.0625 C 0.5625 -2.78125 0.75 -2.625 0.984375 -2.625 C 1.21875 -2.625 1.390625 -2.8125 1.390625 -3.03125 C 1.390625 -3.421875 0.984375 -3.46875 0.984375 -3.46875 C 1.234375 -3.703125 1.65625 -3.78125 1.921875 -3.78125 C 2.375 -3.78125 2.890625 -3.4375 2.890625 -2.65625 L 2.890625 -2.359375 C 2.40625 -2.34375 1.734375 -2.296875 1.140625 -2.015625 C 0.484375 -1.703125 0.296875 -1.234375 0.296875 -0.875 C 0.296875 -0.140625 1.15625 0.09375 1.765625 0.09375 C 2.5 0.09375 2.84375 -0.390625 2.96875 -0.640625 C 3.015625 -0.265625 3.265625 0.046875 3.65625 0.046875 C 3.875 0.046875 4.4375 -0.078125 4.4375 -0.796875 Z M 2.890625 -1.265625 C 2.890625 -0.390625 2.21875 -0.125 1.828125 -0.125 C 1.40625 -0.125 1.015625 -0.421875 1.015625 -0.875 C 1.015625 -1.46875 1.515625 -2.09375 2.890625 -2.140625 Z M 2.890625 -1.265625 "/>
</g>
<g id="glyph-0-4">
<path d="M 7.4375 0 L 7.4375 -0.28125 C 6.984375 -0.28125 6.765625 -0.28125 6.75 -0.546875 L 6.75 -2.265625 C 6.75 -3.046875 6.75 -3.296875 6.46875 -3.625 C 6.28125 -3.84375 5.921875 -3.953125 5.5 -3.953125 C 4.859375 -3.953125 4.421875 -3.578125 4.171875 -3.09375 C 4.0625 -3.625 3.703125 -3.953125 2.953125 -3.953125 C 2.25 -3.953125 1.8125 -3.484375 1.625 -3.078125 L 1.609375 -3.078125 L 1.609375 -3.953125 L 0.3125 -3.859375 L 0.3125 -3.578125 C 0.921875 -3.578125 1 -3.515625 1 -3.078125 L 1 -0.6875 C 1 -0.28125 0.90625 -0.28125 0.3125 -0.28125 L 0.3125 0 C 0.734375 -0.015625 0.90625 -0.03125 1.328125 -0.03125 C 1.765625 -0.03125 1.875 -0.015625 2.34375 0 L 2.34375 -0.28125 C 1.765625 -0.28125 1.65625 -0.28125 1.65625 -0.6875 L 1.65625 -2.3125 C 1.65625 -3.28125 2.359375 -3.734375 2.890625 -3.734375 C 3.390625 -3.734375 3.546875 -3.375 3.546875 -2.75 L 3.546875 -0.6875 C 3.546875 -0.28125 3.453125 -0.28125 2.859375 -0.28125 L 2.859375 0 C 3.28125 -0.015625 3.453125 -0.03125 3.875 -0.03125 C 4.3125 -0.03125 4.421875 -0.015625 4.890625 0 L 4.890625 -0.28125 C 4.3125 -0.28125 4.203125 -0.28125 4.203125 -0.6875 L 4.203125 -2.3125 C 4.203125 -3.28125 4.90625 -3.734375 5.4375 -3.734375 C 5.9375 -3.734375 6.09375 -3.375 6.09375 -2.75 L 6.09375 -0.6875 C 6.09375 -0.28125 6 -0.28125 5.40625 -0.28125 L 5.40625 0 C 5.828125 -0.015625 6 -0.03125 6.421875 -0.03125 C 6.859375 -0.03125 6.96875 -0.015625 7.4375 0 Z M 7.4375 0 "/>
</g>
<g id="glyph-0-5">
<path d="M 3.0625 -1.109375 L 3.0625 -1.625 L 2.8125 -1.625 L 2.8125 -1.140625 C 2.8125 -0.46875 2.53125 -0.15625 2.203125 -0.15625 C 1.609375 -0.15625 1.609375 -0.9375 1.609375 -1.09375 L 1.609375 -3.578125 L 2.90625 -3.578125 L 2.90625 -3.859375 L 1.609375 -3.859375 L 1.609375 -5.5 L 1.359375 -5.5 C 1.34375 -4.75 1.03125 -3.828125 0.171875 -3.796875 L 0.171875 -3.578125 L 0.953125 -3.578125 L 0.953125 -1.109375 C 0.953125 -0.109375 1.671875 0.09375 2.140625 0.09375 C 2.75 0.09375 3.0625 -0.46875 3.0625 -1.109375 Z M 3.0625 -1.109375 "/>
</g>
<g id="glyph-0-6">
<path d="M 3.328125 -3.390625 C 3.328125 -3.6875 3.0625 -3.953125 2.65625 -3.953125 C 2.125 -3.953125 1.75 -3.578125 1.546875 -3.015625 L 1.53125 -3.015625 L 1.53125 -3.953125 L 0.265625 -3.859375 L 0.265625 -3.578125 C 0.875 -3.578125 0.953125 -3.515625 0.953125 -3.078125 L 0.953125 -0.6875 C 0.953125 -0.28125 0.859375 -0.28125 0.265625 -0.28125 L 0.265625 0 C 0.734375 -0.015625 0.859375 -0.03125 1.3125 -0.03125 L 2.453125 0 L 2.453125 -0.28125 L 2.265625 -0.28125 C 1.625 -0.28125 1.59375 -0.375 1.59375 -0.703125 L 1.59375 -2.046875 C 1.59375 -2.40625 1.6875 -3.734375 2.703125 -3.734375 L 2.703125 -3.71875 C 2.6875 -3.703125 2.546875 -3.609375 2.546875 -3.390625 C 2.546875 -3.140625 2.734375 -3 2.9375 -3 C 3.125 -3 3.328125 -3.125 3.328125 -3.390625 Z M 3.328125 -3.390625 "/>
</g>
<g id="glyph-0-7">
<path d="M 2.265625 0 L 2.265625 -0.28125 C 1.6875 -0.28125 1.640625 -0.328125 1.640625 -0.671875 L 1.640625 -3.953125 L 0.359375 -3.859375 L 0.359375 -3.578125 C 0.921875 -3.578125 1.015625 -3.515625 1.015625 -3.078125 L 1.015625 -0.6875 C 1.015625 -0.28125 0.90625 -0.28125 0.328125 -0.28125 L 0.328125 0 C 0.71875 -0.015625 0.90625 -0.03125 1.3125 -0.03125 C 1.453125 -0.03125 1.828125 -0.03125 2.265625 0 Z M 1.765625 -5.390625 C 1.765625 -5.65625 1.546875 -5.875 1.28125 -5.875 C 1.015625 -5.875 0.796875 -5.65625 0.796875 -5.390625 C 0.796875 -5.125 1.015625 -4.90625 1.28125 -4.90625 C 1.546875 -4.90625 1.765625 -5.125 1.765625 -5.390625 Z M 1.765625 -5.390625 "/>
</g>
<g id="glyph-0-8">
<path d="M 4.71875 0 L 4.71875 -0.28125 C 4.359375 -0.28125 4.09375 -0.28125 3.890625 -0.53125 L 2.71875 -2.015625 C 2.65625 -2.09375 2.65625 -2.109375 2.65625 -2.109375 C 2.65625 -2.109375 3.359375 -2.96875 3.4375 -3.046875 C 3.703125 -3.359375 4.015625 -3.5625 4.5625 -3.578125 L 4.5625 -3.859375 C 4.296875 -3.828125 4.0625 -3.828125 3.796875 -3.828125 C 3.453125 -3.828125 3.296875 -3.828125 2.9375 -3.859375 L 2.9375 -3.578125 C 3.078125 -3.5625 3.1875 -3.484375 3.1875 -3.3125 C 3.1875 -3.15625 3.109375 -3.0625 3.0625 -3.015625 L 2.5 -2.3125 L 1.796875 -3.1875 C 1.734375 -3.265625 1.71875 -3.28125 1.71875 -3.359375 C 1.71875 -3.453125 1.8125 -3.5625 2.015625 -3.578125 L 2.015625 -3.859375 C 1.6875 -3.828125 1.453125 -3.828125 1.046875 -3.828125 C 1.046875 -3.828125 0.515625 -3.828125 0.171875 -3.859375 L 0.171875 -3.578125 C 0.78125 -3.578125 0.796875 -3.5625 1.21875 -3.03125 L 2.140625 -1.875 L 1.265625 -0.828125 C 0.828125 -0.296875 0.3125 -0.28125 0.125 -0.28125 L 0.125 0 C 0.390625 -0.03125 0.625 -0.03125 0.890625 -0.03125 C 1.171875 -0.03125 1.453125 -0.015625 1.75 0 L 1.75 -0.28125 C 1.515625 -0.296875 1.5 -0.453125 1.5 -0.546875 C 1.5 -0.578125 1.5 -0.703125 1.625 -0.859375 C 1.84375 -1.140625 2.078125 -1.40625 2.296875 -1.671875 L 3 -0.765625 C 3.171875 -0.578125 3.171875 -0.546875 3.171875 -0.5 C 3.171875 -0.40625 3.078125 -0.28125 2.875 -0.28125 L 2.875 0 C 3.25 -0.015625 3.453125 -0.03125 3.84375 -0.03125 C 3.84375 -0.03125 4.375 -0.03125 4.71875 0 Z M 4.71875 0 "/>
</g>
<g id="glyph-0-9">
<path d="M 4.453125 -3.609375 C 4.453125 -3.765625 4.328125 -4.046875 3.984375 -4.046875 C 3.71875 -4.046875 3.3125 -3.953125 3 -3.625 C 2.765625 -3.828125 2.40625 -3.953125 2.03125 -3.953125 C 1.1875 -3.953125 0.546875 -3.34375 0.546875 -2.640625 C 0.546875 -2.1875 0.8125 -1.859375 0.953125 -1.71875 C 0.9375 -1.703125 0.6875 -1.390625 0.6875 -0.984375 C 0.6875 -0.671875 0.828125 -0.359375 1.078125 -0.203125 C 0.609375 -0.046875 0.265625 0.28125 0.265625 0.703125 C 0.265625 1.328125 1.140625 1.84375 2.28125 1.84375 C 3.390625 1.84375 4.328125 1.375 4.328125 0.671875 C 4.328125 0.3125 4.15625 -0.078125 3.828125 -0.296875 C 3.328125 -0.609375 2.8125 -0.609375 1.953125 -0.609375 C 1.78125 -0.609375 1.5 -0.609375 1.421875 -0.625 C 1.15625 -0.671875 0.984375 -0.921875 0.984375 -1.203125 C 0.984375 -1.34375 1.03125 -1.484375 1.125 -1.59375 C 1.34375 -1.453125 1.625 -1.328125 2.03125 -1.328125 C 2.875 -1.328125 3.515625 -1.9375 3.515625 -2.640625 C 3.515625 -3.078125 3.265625 -3.375 3.15625 -3.5 C 3.515625 -3.828125 3.9375 -3.828125 4.046875 -3.828125 C 4 -3.796875 3.921875 -3.75 3.921875 -3.59375 C 3.921875 -3.5 3.984375 -3.328125 4.1875 -3.328125 C 4.3125 -3.328125 4.453125 -3.421875 4.453125 -3.609375 Z M 2.828125 -2.640625 C 2.828125 -2.4375 2.828125 -1.5625 2.03125 -1.5625 C 1.234375 -1.5625 1.234375 -2.4375 1.234375 -2.640625 C 1.234375 -2.875 1.25 -3.1875 1.40625 -3.390625 C 1.53125 -3.578125 1.78125 -3.703125 2.03125 -3.703125 C 2.828125 -3.703125 2.828125 -2.84375 2.828125 -2.640625 Z M 3.828125 0.6875 C 3.828125 1.203125 3.140625 1.59375 2.296875 1.59375 C 1.421875 1.59375 0.765625 1.1875 0.765625 0.6875 C 0.765625 0.546875 0.84375 -0.046875 1.625 -0.046875 L 2.4375 -0.046875 C 2.71875 -0.046875 3.828125 -0.03125 3.828125 0.6875 Z M 3.828125 0.6875 "/>
</g>
<g id="glyph-0-10">
<path d="M 3.8125 -1.0625 C 3.8125 -1.125 3.765625 -1.1875 3.6875 -1.1875 C 3.609375 -1.1875 3.578125 -1.125 3.5625 -1.078125 C 3.265625 -0.171875 2.46875 -0.15625 2.328125 -0.15625 C 1.90625 -0.15625 1.53125 -0.390625 1.328125 -0.703125 C 1.03125 -1.140625 1.03125 -1.671875 1.03125 -2.046875 L 3.578125 -2.046875 C 3.765625 -2.046875 3.8125 -2.046875 3.8125 -2.234375 C 3.8125 -3.15625 3.3125 -4 2.171875 -4 C 1.09375 -4 0.265625 -3.078125 0.265625 -1.96875 C 0.265625 -0.796875 1.203125 0.09375 2.28125 0.09375 C 3.375 0.09375 3.8125 -0.859375 3.8125 -1.0625 Z M 3.203125 -2.265625 L 1.03125 -2.265625 C 1.125 -3.640625 1.921875 -3.78125 2.171875 -3.78125 C 2.65625 -3.78125 3.203125 -3.40625 3.203125 -2.265625 Z M 3.203125 -2.265625 "/>
</g>
<g id="glyph-0-11">
<path d="M 4.796875 -1.9375 C 4.796875 -3.046875 3.90625 -3.953125 2.828125 -3.953125 C 2.21875 -3.953125 1.8125 -3.640625 1.59375 -3.390625 L 1.59375 -6.203125 L 0.265625 -6.109375 L 0.265625 -5.828125 C 0.875 -5.828125 0.953125 -5.765625 0.953125 -5.328125 L 0.953125 0 L 1.203125 0 L 1.53125 -0.546875 C 1.8125 -0.15625 2.265625 0.09375 2.75 0.09375 C 3.8125 0.09375 4.796875 -0.765625 4.796875 -1.9375 Z M 4.015625 -1.9375 C 4.015625 -1.515625 3.96875 -1.046875 3.734375 -0.6875 C 3.546875 -0.40625 3.171875 -0.125 2.703125 -0.125 C 2.296875 -0.125 1.953125 -0.34375 1.75 -0.671875 C 1.625 -0.859375 1.625 -0.859375 1.625 -1.03125 L 1.625 -2.84375 C 1.625 -3.015625 1.625 -3.03125 1.71875 -3.171875 C 2.015625 -3.578125 2.453125 -3.734375 2.796875 -3.734375 C 3.1875 -3.734375 3.546875 -3.515625 3.765625 -3.140625 C 4 -2.75 4.015625 -2.21875 4.015625 -1.9375 Z M 4.015625 -1.9375 "/>
</g>
<g id="glyph-0-12">
<path d="M 3.3125 -1.140625 C 3.3125 -1.546875 3.125 -1.78125 2.9375 -2 C 2.625 -2.28125 2.3125 -2.34375 1.640625 -2.46875 C 1.40625 -2.515625 0.765625 -2.640625 0.765625 -3.140625 C 0.765625 -3.4375 0.96875 -3.8125 1.78125 -3.8125 C 2.75 -3.8125 2.8125 -3.0625 2.828125 -2.84375 C 2.828125 -2.734375 2.828125 -2.6875 2.953125 -2.6875 C 3.078125 -2.6875 3.078125 -2.75 3.078125 -2.90625 L 3.078125 -3.765625 C 3.078125 -3.921875 3.078125 -4 2.96875 -4 C 2.921875 -4 2.90625 -4 2.78125 -3.890625 C 2.765625 -3.875 2.6875 -3.796875 2.640625 -3.75 C 2.359375 -3.953125 2.078125 -4 1.78125 -4 C 0.59375 -4 0.296875 -3.359375 0.296875 -2.890625 C 0.296875 -2.609375 0.421875 -2.375 0.640625 -2.1875 C 0.9375 -1.90625 1.28125 -1.84375 1.734375 -1.765625 C 2.1875 -1.671875 2.34375 -1.640625 2.53125 -1.5 C 2.625 -1.421875 2.84375 -1.25 2.84375 -0.90625 C 2.84375 -0.125 1.953125 -0.125 1.828125 -0.125 C 0.90625 -0.125 0.671875 -0.890625 0.578125 -1.375 C 0.546875 -1.453125 0.53125 -1.515625 0.421875 -1.515625 C 0.296875 -1.515625 0.296875 -1.4375 0.296875 -1.28125 L 0.296875 -0.140625 C 0.296875 0.015625 0.296875 0.09375 0.40625 0.09375 C 0.46875 0.09375 0.46875 0.09375 0.640625 -0.078125 C 0.671875 -0.140625 0.765625 -0.25 0.8125 -0.296875 C 1.1875 0.078125 1.59375 0.09375 1.828125 0.09375 C 2.921875 0.09375 3.3125 -0.546875 3.3125 -1.140625 Z M 3.3125 -1.140625 "/>
</g>
<g id="glyph-0-13">
<path d="M 6.109375 -2.078125 C 6.109375 -2.15625 6.109375 -2.25 5.984375 -2.25 C 5.875 -2.25 5.875 -2.1875 5.859375 -2.09375 C 5.796875 -0.734375 4.71875 -0.078125 3.796875 -0.078125 C 3.03125 -0.078125 1.421875 -0.546875 1.421875 -3.0625 C 1.421875 -5.546875 3.046875 -6.03125 3.796875 -6.03125 C 4.671875 -6.03125 5.609375 -5.359375 5.828125 -3.90625 C 5.84375 -3.796875 5.859375 -3.75 5.96875 -3.75 C 6.109375 -3.75 6.109375 -3.796875 6.109375 -3.984375 L 6.109375 -6.0625 C 6.109375 -6.21875 6.109375 -6.296875 6 -6.296875 C 5.9375 -6.296875 5.921875 -6.28125 5.859375 -6.1875 L 5.40625 -5.515625 C 5.125 -5.796875 4.609375 -6.296875 3.703125 -6.296875 C 1.96875 -6.296875 0.515625 -4.859375 0.515625 -3.0625 C 0.515625 -1.21875 2 0.203125 3.703125 0.203125 C 5.1875 0.203125 6.109375 -1.03125 6.109375 -2.078125 Z M 6.109375 -2.078125 "/>
</g>
<g id="glyph-0-14">
<path d="M 3.984375 -3.953125 C 3.984375 -4.109375 3.875 -4.15625 3.796875 -4.203125 L 2.53125 -4.765625 L 3.796875 -5.359375 C 3.875 -5.390625 3.984375 -5.4375 3.984375 -5.609375 C 3.984375 -5.734375 3.890625 -5.875 3.734375 -5.875 C 3.6875 -5.875 3.640625 -5.875 3.53125 -5.796875 L 2.40625 -4.984375 L 2.53125 -6.34375 L 2.5625 -6.46875 C 2.5625 -6.578125 2.453125 -6.703125 2.296875 -6.703125 C 2.109375 -6.703125 2.03125 -6.5625 2.03125 -6.46875 L 2.046875 -6.34375 L 2.171875 -4.984375 L 1.046875 -5.78125 C 0.9375 -5.875 0.921875 -5.875 0.859375 -5.875 C 0.703125 -5.875 0.59375 -5.734375 0.59375 -5.609375 C 0.59375 -5.4375 0.703125 -5.390625 0.796875 -5.359375 L 2.0625 -4.78125 L 0.796875 -4.203125 C 0.703125 -4.15625 0.59375 -4.109375 0.59375 -3.953125 C 0.59375 -3.828125 0.703125 -3.6875 0.859375 -3.6875 C 0.90625 -3.6875 0.953125 -3.6875 1.046875 -3.765625 L 2.171875 -4.578125 L 2.046875 -3.203125 L 2.03125 -3.09375 C 2.03125 -2.96875 2.140625 -2.84375 2.28125 -2.84375 C 2.46875 -2.84375 2.5625 -3 2.5625 -3.09375 L 2.53125 -3.203125 L 2.40625 -4.5625 L 3.53125 -3.765625 C 3.640625 -3.6875 3.671875 -3.6875 3.734375 -3.6875 C 3.890625 -3.6875 3.984375 -3.828125 3.984375 -3.953125 Z M 3.984375 -3.953125 "/>
</g>
<g id="glyph-0-15">
<path d="M 2.546875 -1.65625 L 2.546875 -2.203125 L 0.09375 -2.203125 L 0.09375 -1.65625 Z M 2.546875 -1.65625 "/>
</g>
<g id="glyph-0-16">
<path d="M 4.890625 0 L 4.890625 -0.28125 C 4.4375 -0.28125 4.203125 -0.28125 4.203125 -0.546875 L 4.203125 -2.265625 C 4.203125 -3.015625 4.203125 -3.265625 3.953125 -3.578125 C 3.75 -3.828125 3.40625 -3.953125 2.953125 -3.953125 C 2.125 -3.953125 1.75 -3.328125 1.625 -3.078125 L 1.609375 -3.078125 L 1.609375 -3.953125 L 0.3125 -3.859375 L 0.3125 -3.578125 C 0.921875 -3.578125 1 -3.515625 1 -3.078125 L 1 -0.6875 C 1 -0.28125 0.90625 -0.28125 0.3125 -0.28125 L 0.3125 0 C 0.734375 -0.015625 0.90625 -0.03125 1.328125 -0.03125 C 1.765625 -0.03125 1.875 -0.015625 2.34375 0 L 2.34375 -0.28125 C 1.765625 -0.28125 1.65625 -0.28125 1.65625 -0.6875 L 1.65625 -2.3125 C 1.65625 -3.265625 2.328125 -3.734375 2.890625 -3.734375 C 3.421875 -3.734375 3.546875 -3.28125 3.546875 -2.75 L 3.546875 -0.6875 C 3.546875 -0.28125 3.4375 -0.28125 2.84375 -0.28125 L 2.84375 0 C 3.265625 -0.015625 3.4375 -0.03125 3.875 -0.03125 C 4.296875 -0.03125 4.421875 -0.015625 4.890625 0 Z M 4.890625 0 "/>
</g>
<g id="glyph-0-17">
<path d="M 4.828125 0 L 4.828125 -0.28125 C 4.21875 -0.28125 4.140625 -0.34375 4.140625 -0.78125 L 4.140625 -6.203125 L 2.8125 -6.109375 L 2.8125 -5.828125 C 3.421875 -5.828125 3.5 -5.765625 3.5 -5.328125 L 3.5 -3.421875 C 3.453125 -3.484375 3.0625 -3.953125 2.359375 -3.953125 C 1.265625 -3.953125 0.296875 -3.078125 0.296875 -1.921875 C 0.296875 -0.796875 1.203125 0.09375 2.265625 0.09375 C 2.90625 0.09375 3.3125 -0.28125 3.484375 -0.46875 L 3.484375 0.09375 Z M 3.484375 -1.078125 C 3.484375 -0.90625 3.484375 -0.890625 3.34375 -0.703125 C 3.0625 -0.296875 2.65625 -0.125 2.296875 -0.125 C 1.90625 -0.125 1.5625 -0.34375 1.328125 -0.71875 C 1.09375 -1.09375 1.078125 -1.625 1.078125 -1.90625 C 1.078125 -2.328125 1.125 -2.8125 1.359375 -3.15625 C 1.5625 -3.453125 1.921875 -3.734375 2.390625 -3.734375 C 2.765625 -3.734375 3.125 -3.546875 3.375 -3.203125 C 3.484375 -3.0625 3.484375 -3.046875 3.484375 -2.875 Z M 3.484375 -1.078125 "/>
</g>
<g id="glyph-0-18">
<path d="M 4.890625 0 L 4.890625 -0.28125 C 4.28125 -0.28125 4.203125 -0.34375 4.203125 -0.78125 L 4.203125 -3.953125 L 2.84375 -3.859375 L 2.84375 -3.578125 C 3.453125 -3.578125 3.546875 -3.515625 3.546875 -3.078125 L 3.546875 -1.5 C 3.546875 -0.703125 3.09375 -0.125 2.453125 -0.125 C 1.703125 -0.125 1.65625 -0.515625 1.65625 -0.984375 L 1.65625 -3.953125 L 0.3125 -3.859375 L 0.3125 -3.578125 C 1 -3.578125 1 -3.546875 1 -2.75 L 1 -1.40625 C 1 -0.828125 1 -0.453125 1.40625 -0.140625 C 1.671875 0.03125 2.03125 0.09375 2.390625 0.09375 C 2.859375 0.09375 3.296875 -0.109375 3.5625 -0.640625 L 3.5625 0.09375 Z M 4.890625 0 "/>
</g>
<g id="glyph-0-19">
<path d="M 4.65625 -3.578125 L 4.65625 -3.859375 C 4.390625 -3.828125 3.96875 -3.828125 3.96875 -3.828125 C 3.71875 -3.828125 3.4375 -3.828125 3.1875 -3.859375 L 3.1875 -3.578125 C 3.453125 -3.5625 3.609375 -3.421875 3.609375 -3.1875 C 3.609375 -3.09375 3.59375 -3.078125 3.5625 -2.984375 L 2.625 -0.734375 L 1.609375 -3.171875 C 1.578125 -3.21875 1.5625 -3.28125 1.5625 -3.34375 C 1.5625 -3.578125 1.890625 -3.578125 2.0625 -3.578125 L 2.0625 -3.859375 C 1.671875 -3.828125 1.46875 -3.828125 1.078125 -3.828125 C 0.765625 -3.828125 0.5 -3.828125 0.171875 -3.859375 L 0.171875 -3.578125 C 0.59375 -3.578125 0.765625 -3.578125 0.90625 -3.25 L 2.203125 -0.078125 C 2.265625 0.078125 2.328125 0.09375 2.40625 0.09375 C 2.5 0.09375 2.5625 0.078125 2.625 -0.078125 L 3.84375 -3 C 4.03125 -3.453125 4.34375 -3.5625 4.65625 -3.578125 Z M 4.65625 -3.578125 "/>
</g>
<g id="glyph-1-0">
<path d="M 6.921875 -6.0625 C 6.9375 -6.171875 6.9375 -6.1875 6.9375 -6.203125 C 6.9375 -6.21875 6.9375 -6.296875 6.84375 -6.296875 C 6.78125 -6.296875 6.75 -6.28125 6.6875 -6.203125 L 6.15625 -5.609375 C 6.109375 -5.5625 6.078125 -5.515625 6.0625 -5.515625 C 6.0625 -5.515625 6.046875 -5.53125 6 -5.59375 C 5.859375 -5.78125 5.453125 -6.296875 4.53125 -6.296875 C 2.484375 -6.296875 0.453125 -4.3125 0.453125 -2.28125 C 0.453125 -0.828125 1.515625 0.203125 2.953125 0.203125 C 3.890625 0.203125 4.625 -0.28125 4.96875 -0.59375 C 5.78125 -1.328125 5.9375 -2.109375 5.9375 -2.140625 C 5.9375 -2.1875 5.921875 -2.25 5.8125 -2.25 C 5.71875 -2.25 5.6875 -2.1875 5.6875 -2.15625 C 5.25 -0.71875 3.96875 -0.078125 3.078125 -0.078125 C 2.203125 -0.078125 1.28125 -0.609375 1.28125 -1.953125 C 1.28125 -2.359375 1.421875 -3.765625 2.328125 -4.875 C 2.859375 -5.515625 3.734375 -6.03125 4.59375 -6.03125 C 5.59375 -6.03125 6.109375 -5.265625 6.109375 -4.28125 C 6.109375 -3.984375 6.09375 -3.921875 6.09375 -3.84375 C 6.09375 -3.75 6.1875 -3.75 6.21875 -3.75 C 6.34375 -3.75 6.34375 -3.765625 6.375 -3.9375 Z M 6.921875 -6.0625 "/>
</g>
<g id="glyph-1-1">
<path d="M 5.84375 -6.0625 C 5.875 -6.15625 5.875 -6.171875 5.875 -6.203125 C 5.875 -6.21875 5.859375 -6.296875 5.765625 -6.296875 C 5.71875 -6.296875 5.71875 -6.296875 5.609375 -6.171875 C 5.484375 -6.03125 5.59375 -6.15625 5.171875 -5.671875 C 4.84375 -6.171875 4.328125 -6.296875 3.859375 -6.296875 C 2.703125 -6.296875 1.609375 -5.265625 1.609375 -4.203125 C 1.609375 -3.828125 1.71875 -3.53125 1.953125 -3.28125 C 2.21875 -3.015625 2.4375 -2.953125 3.078125 -2.78125 L 3.828125 -2.59375 C 4.125 -2.5 4.421875 -2.21875 4.421875 -1.71875 C 4.421875 -0.921875 3.65625 -0.078125 2.765625 -0.078125 C 2.234375 -0.078125 1.171875 -0.234375 1.171875 -1.390625 C 1.171875 -1.46875 1.171875 -1.59375 1.21875 -1.875 C 1.25 -1.90625 1.25 -1.921875 1.25 -1.9375 C 1.25 -1.96875 1.21875 -2.03125 1.125 -2.03125 C 1.015625 -2.03125 1 -1.984375 0.96875 -1.828125 L 0.484375 0.09375 C 0.484375 0.15625 0.53125 0.203125 0.59375 0.203125 C 0.640625 0.203125 0.65625 0.1875 0.765625 0.0625 C 0.828125 0 1.078125 -0.328125 1.1875 -0.4375 C 1.65625 0.15625 2.46875 0.203125 2.75 0.203125 C 3.984375 0.203125 5.046875 -0.953125 5.046875 -2.078125 C 5.046875 -3.1875 4.171875 -3.421875 3.890625 -3.484375 L 3.078125 -3.6875 C 2.78125 -3.765625 2.25 -3.90625 2.25 -4.578125 C 2.25 -5.265625 2.953125 -6.046875 3.859375 -6.046875 C 4.203125 -6.046875 4.5625 -5.953125 4.8125 -5.703125 C 5.140625 -5.375 5.15625 -4.890625 5.15625 -4.65625 C 5.15625 -4.359375 5.125 -4.265625 5.125 -4.1875 C 5.125 -4.125 5.15625 -4.078125 5.25 -4.078125 C 5.34375 -4.078125 5.34375 -4.09375 5.390625 -4.265625 Z M 5.84375 -6.0625 "/>
</g>
<g id="glyph-1-2">
<path d="M 1.625 -0.140625 C 1.625 0.15625 1.625 0.890625 0.96875 1.515625 C 0.90625 1.578125 0.90625 1.578125 0.90625 1.625 C 0.90625 1.6875 0.96875 1.71875 1.03125 1.71875 C 1.125 1.71875 1.84375 1.03125 1.84375 -0.015625 C 1.84375 -0.578125 1.65625 -0.96875 1.265625 -0.96875 C 0.96875 -0.96875 0.78125 -0.734375 0.78125 -0.484375 C 0.78125 -0.234375 0.96875 0 1.265625 0 C 1.40625 0 1.53125 -0.046875 1.625 -0.140625 Z M 1.625 -0.140625 "/>
</g>
<g id="glyph-1-3">
<path d="M 4.609375 -3.734375 L 6.421875 -5.09375 L 6.53125 -5.15625 C 7.09375 -5.546875 7.421875 -5.78125 7.953125 -5.828125 C 8.015625 -5.84375 8.109375 -5.84375 8.109375 -5.984375 C 8.109375 -6.03125 8.09375 -6.109375 8.015625 -6.109375 C 7.9375 -6.109375 7.890625 -6.078125 7.34375 -6.078125 C 7.03125 -6.078125 6.6875 -6.109375 6.375 -6.109375 C 6.328125 -6.109375 6.21875 -6.109375 6.21875 -5.9375 C 6.21875 -5.84375 6.3125 -5.828125 6.34375 -5.828125 C 6.40625 -5.8125 6.59375 -5.8125 6.59375 -5.671875 C 6.59375 -5.59375 6.53125 -5.484375 6.40625 -5.375 C 6.375 -5.328125 6.359375 -5.328125 6.34375 -5.3125 C 6.3125 -5.265625 6.296875 -5.265625 6.25 -5.234375 L 2.6875 -2.5625 L 3.40625 -5.421875 C 3.484375 -5.75 3.515625 -5.828125 4.203125 -5.828125 C 4.359375 -5.828125 4.453125 -5.828125 4.453125 -5.984375 C 4.453125 -6.0625 4.390625 -6.109375 4.3125 -6.109375 C 4.140625 -6.109375 3.9375 -6.09375 3.75 -6.09375 C 3.5625 -6.078125 3.359375 -6.078125 3.1875 -6.078125 C 2.890625 -6.078125 2.875 -6.078125 2.609375 -6.09375 C 2.4375 -6.09375 2.203125 -6.109375 2.03125 -6.109375 C 1.96875 -6.109375 1.84375 -6.109375 1.84375 -5.9375 C 1.84375 -5.828125 1.9375 -5.828125 2.125 -5.828125 C 2.15625 -5.828125 2.3125 -5.828125 2.453125 -5.8125 C 2.609375 -5.796875 2.671875 -5.78125 2.671875 -5.671875 C 2.671875 -5.625 2.65625 -5.59375 2.640625 -5.5 L 1.4375 -0.671875 C 1.34375 -0.359375 1.328125 -0.28125 0.65625 -0.28125 C 0.484375 -0.28125 0.390625 -0.28125 0.390625 -0.109375 C 0.390625 -0.015625 0.46875 0 0.53125 0 C 0.703125 0 0.921875 -0.015625 1.09375 -0.015625 C 1.359375 -0.03125 1.375 -0.03125 1.65625 -0.03125 C 1.953125 -0.03125 1.96875 -0.03125 2.234375 -0.015625 C 2.40625 -0.015625 2.640625 0 2.8125 0 C 2.875 0 3 0 3 -0.15625 C 3 -0.28125 2.90625 -0.28125 2.71875 -0.28125 C 2.6875 -0.28125 2.515625 -0.28125 2.375 -0.296875 C 2.1875 -0.328125 2.171875 -0.359375 2.171875 -0.4375 C 2.171875 -0.515625 2.25 -0.8125 2.609375 -2.21875 L 3.984375 -3.25 L 5.125 -0.75 C 5.171875 -0.640625 5.1875 -0.609375 5.1875 -0.546875 C 5.1875 -0.28125 4.8125 -0.28125 4.734375 -0.28125 C 4.625 -0.28125 4.515625 -0.28125 4.515625 -0.109375 C 4.515625 -0.03125 4.609375 0 4.671875 0 C 4.828125 0 5.015625 -0.015625 5.1875 -0.015625 C 5.359375 -0.015625 5.546875 -0.03125 5.734375 -0.03125 C 5.875 -0.03125 6.125 -0.03125 6.1875 -0.015625 L 6.625 0 C 6.65625 0 6.78125 0 6.78125 -0.15625 C 6.78125 -0.28125 6.671875 -0.28125 6.625 -0.28125 C 6.3125 -0.28125 6.15625 -0.328125 6 -0.65625 Z M 4.609375 -3.734375 "/>
</g>
<g id="glyph-1-4">
<path d="M 1.75 -0.484375 C 1.75 -0.734375 1.546875 -0.96875 1.265625 -0.96875 C 0.984375 -0.96875 0.78125 -0.734375 0.78125 -0.484375 C 0.78125 -0.21875 0.984375 0 1.265625 0 C 1.546875 0 1.75 -0.21875 1.75 -0.484375 Z M 1.75 -0.484375 "/>
</g>
<g id="glyph-2-0">
<path d="M 3.046875 2.125 C 3.046875 2.078125 3.015625 2.0625 2.96875 2 C 1.8125 0.9375 1.46875 -0.671875 1.46875 -2.234375 C 1.46875 -3.625 1.734375 -5.296875 3 -6.5 C 3.03125 -6.53125 3.046875 -6.5625 3.046875 -6.609375 C 3.046875 -6.671875 3 -6.703125 2.9375 -6.703125 C 2.828125 -6.703125 2.03125 -6.0625 1.546875 -5.078125 C 1.125 -4.234375 0.90625 -3.3125 0.90625 -2.25 C 0.90625 -1.59375 0.984375 -0.578125 1.46875 0.46875 C 2 1.578125 2.828125 2.21875 2.9375 2.21875 C 3 2.21875 3.046875 2.1875 3.046875 2.125 Z M 3.046875 2.125 "/>
</g>
<g id="glyph-2-1">
<path d="M 2.65625 -2.25 C 2.65625 -2.96875 2.5625 -3.953125 2.09375 -4.953125 C 1.5625 -6.046875 0.734375 -6.703125 0.625 -6.703125 C 0.53125 -6.703125 0.515625 -6.625 0.515625 -6.609375 C 0.515625 -6.5625 0.53125 -6.53125 0.59375 -6.46875 C 1.125 -6 2.09375 -4.796875 2.09375 -2.25 C 2.09375 -0.96875 1.875 0.8125 0.578125 2.015625 C 0.546875 2.046875 0.515625 2.078125 0.515625 2.125 C 0.515625 2.15625 0.53125 2.21875 0.625 2.21875 C 0.734375 2.21875 1.53125 1.578125 2.015625 0.609375 C 2.453125 -0.25 2.65625 -1.171875 2.65625 -2.25 Z M 2.65625 -2.25 "/>
</g>
<g id="glyph-3-0">
<path d="M 5.453125 -1.46875 C 5.5 -1.015625 5.59375 -0.609375 5.65625 -0.375 C 5.75 0.046875 5.8125 0.265625 6.203125 0.265625 C 6.625 0.265625 7.3125 -0.140625 7.3125 -0.328125 C 7.3125 -0.34375 7.3125 -0.390625 7.234375 -0.390625 C 7.234375 -0.390625 7.109375 -0.375 6.9375 -0.28125 C 6.84375 -0.234375 6.84375 -0.234375 6.8125 -0.234375 C 6.53125 -0.234375 6.46875 -0.515625 6.359375 -1.046875 C 6.28125 -1.4375 6.234375 -1.703125 6.125 -3.03125 C 6.0625 -3.828125 6.03125 -4.609375 6.03125 -5.390625 L 6.03125 -6.25 C 6.03125 -6.421875 6.03125 -6.46875 5.9375 -6.46875 C 5.8125 -6.46875 5.46875 -6.34375 5.265625 -6.0625 L 5.203125 -5.96875 C 5.1875 -5.953125 4.546875 -4.546875 3.40625 -2.75 C 2.9375 -2.03125 1.875 -0.390625 1.375 -0.390625 C 1.125 -0.390625 0.734375 -0.578125 0.640625 -0.890625 C 0.625 -0.953125 0.609375 -0.984375 0.578125 -0.984375 C 0.4375 -0.984375 0.234375 -0.53125 0.234375 -0.296875 C 0.234375 0.015625 0.609375 0.453125 1.078125 0.453125 C 1.625 0.453125 2.296875 -0.53125 2.953125 -1.46875 Z M 5.25 -5.375 L 5.25 -4.984375 C 5.25 -3.984375 5.359375 -2.46875 5.390625 -1.96875 L 3.734375 -1.96875 C 3.5625 -1.96875 3.4375 -1.96875 3.203125 -1.828125 C 3.75 -2.671875 4.046875 -3.140625 4.359375 -3.703125 C 4.921875 -4.71875 5.109375 -5.125 5.234375 -5.375 Z M 5.25 -5.375 "/>
</g>
<g id="glyph-4-0">
<path d="M 3.9375 -4.046875 L 0.390625 -4.046875 L 0.390625 -3.8125 L 0.546875 -3.8125 C 1.015625 -3.8125 1.015625 -3.75 1.015625 -3.546875 L 1.015625 -0.5 C 1.015625 -0.296875 1.015625 -0.234375 0.546875 -0.234375 L 0.390625 -0.234375 L 0.390625 0 C 0.5 0 1.0625 -0.03125 1.34375 -0.03125 C 1.65625 -0.03125 2.09375 -0.03125 2.40625 0 L 2.40625 -0.234375 L 2.1875 -0.234375 C 1.625 -0.234375 1.625 -0.296875 1.625 -0.5 L 1.625 -3.59375 C 1.625 -3.765625 1.625 -3.8125 1.90625 -3.8125 L 2.6875 -3.8125 C 3.671875 -3.8125 3.796875 -3.4375 3.890625 -2.65625 L 4.125 -2.65625 Z M 3.9375 -4.046875 "/>
</g>
<g id="glyph-4-1">
<path d="M 1.296875 -2.34375 L 2.28125 -2.34375 L 2.28125 -2.578125 L 1.296875 -2.578125 L 1.296875 -3.671875 L 1.078125 -3.671875 C 1.078125 -3.140625 0.8125 -2.546875 0.21875 -2.53125 L 0.21875 -2.34375 L 0.8125 -2.34375 L 0.8125 -0.75 C 0.8125 -0.125 1.28125 0.0625 1.6875 0.0625 C 2.09375 0.0625 2.390625 -0.265625 2.390625 -0.75 L 2.390625 -1.078125 L 2.171875 -1.078125 L 2.171875 -0.765625 C 2.171875 -0.34375 1.953125 -0.15625 1.734375 -0.15625 C 1.296875 -0.15625 1.296875 -0.625 1.296875 -0.75 Z M 1.296875 -2.34375 "/>
</g>
<g id="glyph-4-2">
<path d="M 3.359375 -1.265625 C 3.359375 -2.015625 2.6875 -2.65625 1.828125 -2.65625 C 0.953125 -2.65625 0.28125 -2.015625 0.28125 -1.265625 C 0.28125 -0.546875 0.96875 0.0625 1.828125 0.0625 C 2.6875 0.0625 3.359375 -0.546875 3.359375 -1.265625 Z M 1.828125 -0.15625 C 0.859375 -0.15625 0.859375 -1.03125 0.859375 -1.328125 C 0.859375 -1.515625 0.859375 -1.921875 1.078125 -2.171875 C 1.28125 -2.375 1.53125 -2.46875 1.828125 -2.46875 C 2.109375 -2.46875 2.375 -2.375 2.578125 -2.15625 C 2.78125 -1.921875 2.78125 -1.515625 2.78125 -1.328125 C 2.78125 -1.03125 2.78125 -0.15625 1.828125 -0.15625 Z M 1.828125 -0.15625 "/>
</g>
<g id="glyph-4-3">
<path d="M 1.78125 0.921875 C 1.375 0.921875 1.3125 0.921875 1.3125 0.671875 L 1.3125 -0.28125 C 1.5625 -0.046875 1.84375 0.0625 2.171875 0.0625 C 3 0.0625 3.703125 -0.53125 3.703125 -1.296875 C 3.703125 -2.015625 3.078125 -2.625 2.25 -2.625 C 1.71875 -2.625 1.375 -2.359375 1.296875 -2.28125 L 1.296875 -2.625 L 0.34375 -2.5625 L 0.34375 -2.328125 C 0.75 -2.328125 0.8125 -2.328125 0.8125 -2.0625 L 0.8125 0.671875 C 0.8125 0.921875 0.765625 0.921875 0.34375 0.921875 L 0.34375 1.15625 C 0.390625 1.15625 0.796875 1.140625 1.0625 1.140625 C 1.328125 1.140625 1.71875 1.15625 1.78125 1.15625 Z M 1.3125 -1.96875 C 1.515625 -2.25 1.84375 -2.421875 2.203125 -2.421875 C 2.734375 -2.421875 3.140625 -1.890625 3.140625 -1.296875 C 3.140625 -0.625 2.65625 -0.125 2.125 -0.125 C 1.671875 -0.125 1.40625 -0.453125 1.3125 -0.625 Z M 1.3125 -1.96875 "/>
</g>
</g>
</defs>
<g fill="rgb(95.292664%, 93.725586%, 90.194702%)" fill-opacity="1">
<use xlink:href="#glyph-0-0" x="14.222921" y="21.06779"/>
<use xlink:href="#glyph-0-1" x="16.781176" y="21.06779"/>
</g>
<g fill="rgb(95.292664%, 93.725586%, 90.194702%)" fill-opacity="1">
<use xlink:href="#glyph-0-2" x="21.629338" y="21.06779"/>
<use xlink:href="#glyph-0-3" x="25.717179" y="21.06779"/>
<use xlink:href="#glyph-0-0" x="30.314882" y="21.06779"/>
</g>
<g fill="rgb(95.292664%, 93.725586%, 90.194702%)" fill-opacity="1">
<use xlink:href="#glyph-0-4" x="35.941254" y="21.06779"/>
<use xlink:href="#glyph-0-3" x="43.598129" y="21.06779"/>
<use xlink:href="#glyph-0-5" x="48.195832" y="21.06779"/>
<use xlink:href="#glyph-0-6" x="51.773811" y="21.06779"/>
<use xlink:href="#glyph-0-7" x="55.36968" y="21.06779"/>
<use xlink:href="#glyph-0-8" x="57.927935" y="21.06779"/>
</g>
<g fill="rgb(95.292664%, 93.725586%, 90.194702%)" fill-opacity="1">
<use xlink:href="#glyph-0-3" x="65.853159" y="21.06779"/>
<use xlink:href="#glyph-0-0" x="70.450862" y="21.06779"/>
<use xlink:href="#glyph-0-9" x="73.009117" y="21.06779"/>
<use xlink:href="#glyph-0-10" x="77.60682" y="21.06779"/>
<use xlink:href="#glyph-0-11" x="81.694661" y="21.06779"/>
<use xlink:href="#glyph-0-6" x="86.802226" y="21.06779"/>
<use xlink:href="#glyph-0-3" x="90.398095" y="21.06779"/>
<use xlink:href="#glyph-0-12" x="94.995798" y="21.06779"/>
</g>
<g fill="rgb(95.292664%, 93.725586%, 90.194702%)" fill-opacity="1">
<use xlink:href="#glyph-0-13" x="119.111604" y="21.06779"/>
<use xlink:href="#glyph-0-14" x="125.748755" y="21.06779"/>
<use xlink:href="#glyph-0-15" x="130.346458" y="21.06779"/>
<use xlink:href="#glyph-0-7" x="133.414575" y="21.06779"/>
<use xlink:href="#glyph-0-16" x="135.97283" y="21.06779"/>
<use xlink:href="#glyph-0-17" x="141.080395" y="21.06779"/>
<use xlink:href="#glyph-0-18" x="146.18796" y="21.06779"/>
<use xlink:href="#glyph-0-2" x="151.295525" y="21.06779"/>
<use xlink:href="#glyph-0-5" x="155.383366" y="21.06779"/>
<use xlink:href="#glyph-0-7" x="158.961345" y="21.06779"/>
<use xlink:href="#glyph-0-19" x="161.5196" y="21.06779"/>
</g>
<g fill="rgb(95.292664%, 93.725586%, 90.194702%)" fill-opacity="1">
<use xlink:href="#glyph-0-10" x="166.108358" y="21.06779"/>
</g>
<g fill="rgb(95.292664%, 93.725586%, 90.194702%)" fill-opacity="1">
<use xlink:href="#glyph-0-0" x="173.264316" y="21.06779"/>
<use xlink:href="#glyph-0-7" x="175.822571" y="21.06779"/>
<use xlink:href="#glyph-0-4" x="178.380826" y="21.06779"/>
<use xlink:href="#glyph-0-7" x="186.037701" y="21.06779"/>
<use xlink:href="#glyph-0-5" x="188.595956" y="21.06779"/>
</g>
<g fill="rgb(95.292664%, 93.725586%, 90.194702%)" fill-opacity="1">
<use xlink:href="#glyph-1-0" x="212.668438" y="21.06779"/>
</g>
<g fill="rgb(95.292664%, 93.725586%, 90.194702%)" fill-opacity="1">
<use xlink:href="#glyph-2-0" x="219.866192" y="21.06779"/>
</g>
<g fill="rgb(95.292664%, 93.725586%, 90.194702%)" fill-opacity="1">
<use xlink:href="#glyph-1-1" x="223.441625" y="21.06779"/>
<use xlink:href="#glyph-1-2" x="229.058157" y="21.06779"/>
</g>
<g fill="rgb(95.292664%, 93.725586%, 90.194702%)" fill-opacity="1">
<use xlink:href="#glyph-3-0" x="233.141384" y="21.06779"/>
</g>
<g fill="rgb(95.292664%, 93.725586%, 90.194702%)" fill-opacity="1">
<use xlink:href="#glyph-4-0" x="240.486784" y="22.061409"/>
</g>
<g fill="rgb(95.292664%, 93.725586%, 90.194702%)" fill-opacity="1">
<use xlink:href="#glyph-2-1" x="245.477825" y="21.06779"/>
</g>
<g fill="rgb(95.292664%, 93.725586%, 90.194702%)" fill-opacity="1">
<use xlink:href="#glyph-1-3" x="269.547154" y="21.06779"/>
</g>
<g fill="rgb(95.292664%, 93.725586%, 90.194702%)" fill-opacity="1">
<use xlink:href="#glyph-4-1" x="277.968975" y="17.267895"/>
<use xlink:href="#glyph-4-2" x="280.8403" y="17.267895"/>
<use xlink:href="#glyph-4-3" x="284.484468" y="17.267895"/>
</g>
<g fill="rgb(95.292664%, 93.725586%, 90.194702%)" fill-opacity="1">
<use xlink:href="#glyph-2-0" x="289.011517" y="21.06779"/>
</g>
<g fill="rgb(95.292664%, 93.725586%, 90.194702%)" fill-opacity="1">
<use xlink:href="#glyph-1-0" x="292.58695" y="21.06779"/>
</g>
<g fill="rgb(95.292664%, 93.725586%, 90.194702%)" fill-opacity="1">
<use xlink:href="#glyph-2-0" x="299.785701" y="21.06779"/>
</g>
<g fill="rgb(95.292664%, 93.725586%, 90.194702%)" fill-opacity="1">
<use xlink:href="#glyph-1-1" x="303.361134" y="21.06779"/>
<use xlink:href="#glyph-1-2" x="308.977667" y="21.06779"/>
</g>
<g fill="rgb(95.292664%, 93.725586%, 90.194702%)" fill-opacity="1">
<use xlink:href="#glyph-3-0" x="313.060893" y="21.06779"/>
</g>
<g fill="rgb(95.292664%, 93.725586%, 90.194702%)" fill-opacity="1">
<use xlink:href="#glyph-4-0" x="320.405296" y="22.061409"/>
</g>
<g fill="rgb(95.292664%, 93.725586%, 90.194702%)" fill-opacity="1">
<use xlink:href="#glyph-2-1" x="325.397335" y="21.06779"/>
<use xlink:href="#glyph-2-1" x="328.97263" y="21.06779"/>
</g>
<g fill="rgb(95.292664%, 93.725586%, 90.194702%)" fill-opacity="1">
<use xlink:href="#glyph-1-4" x="332.547203" y="21.06779"/>
</g>
<path fill="none" stroke-width="0.39848" stroke-linecap="butt" stroke-linejoin="miter" stroke="rgb(95.292664%, 93.725586%, 90.194702%)" stroke-opacity="1" stroke-miterlimit="10" d="M -71.735318 -0.130285 L -60.57583 -0.130285 " transform="matrix(0.99761, 0, 0, -0.99761, 174.661504, 18.452057)"/>
<path fill="none" stroke-width="0.39848" stroke-linecap="round" stroke-linejoin="round" stroke="rgb(95.292664%, 93.725586%, 90.194702%)" stroke-opacity="1" stroke-miterlimit="10" d="M -2.071392 2.389597 C -1.695493 0.956483 -0.849722 0.279083 -0.0000343139 0.00107469 C -0.849722 -0.280849 -1.695493 -0.95825 -2.071392 -2.391363 " transform="matrix(0.99761, 0, 0, -0.99761, 114.429722, 18.583103)"/>
<path fill="none" stroke-width="0.39848" stroke-linecap="butt" stroke-linejoin="miter" stroke="rgb(95.292664%, 93.725586%, 90.194702%)" stroke-opacity="1" stroke-miterlimit="10" d="M 22.047446 -0.130285 L 33.206934 -0.130285 " transform="matrix(0.99761, 0, 0, -0.99761, 174.661504, 18.452057)"/>
<path fill="none" stroke-width="0.39848" stroke-linecap="round" stroke-linejoin="round" stroke="rgb(95.292664%, 93.725586%, 90.194702%)" stroke-opacity="1" stroke-miterlimit="10" d="M -2.070198 2.389597 C -1.694299 0.956483 -0.848528 0.279083 0.00115963 0.00107469 C -0.848528 -0.280849 -1.694299 -0.95825 -2.070198 -2.391363 " transform="matrix(0.99761, 0, 0, -0.99761, 207.987124, 18.583103)"/>
<path fill="none" stroke-width="0.39848" stroke-linecap="butt" stroke-linejoin="miter" stroke="rgb(95.292664%, 93.725586%, 90.194702%)" stroke-opacity="1" stroke-miterlimit="10" d="M 79.062637 -0.130285 L 90.222124 -0.130285 " transform="matrix(0.99761, 0, 0, -0.99761, 174.661504, 18.452057)"/>
<path fill="none" stroke-width="0.39848" stroke-linecap="round" stroke-linejoin="round" stroke="rgb(95.292664%, 93.725586%, 90.194702%)" stroke-opacity="1" stroke-miterlimit="10" d="M -2.070997 2.389597 C -1.695099 0.956483 -0.849327 0.279083 0.000360056 0.00107469 C -0.849327 -0.280849 -1.695099 -0.95825 -2.070997 -2.391363 " transform="matrix(0.99761, 0, 0, -0.99761, 264.866828, 18.583103)"/>
</svg>
